<?xml version="1.0" standalone="no"?>
<!DOCTYPE svg PUBLIC "-//W3C//DTD SVG 20010904//EN"
 "http://www.w3.org/TR/2001/REC-SVG-20010904/DTD/svg10.dtd">
<svg version="1.0" xmlns="http://www.w3.org/2000/svg"
 width="165.000000pt" height="40.000000pt" viewBox="0 0 165.000000 40.000000"
 preserveAspectRatio="xMidYMid meet">

<g transform="translate(0.000000,40.000000) scale(0.100000,-0.100000)"
fill="#000000" stroke="none">
<path d="M390 367 c0 -2 15 -16 33 -33 l32 -29 -29 33 c-28 30 -36 37 -36 29z"/>
<path d="M352 327 c-19 -20 -20 -25 -7 -38 13 -13 8 -21 -44 -73 -54 -53 -62
-58 -78 -46 -17 13 -17 13 0 -5 17 -19 19 -17 97 60 44 44 80 84 80 89 0 5 -9
1 -19 -8 -30 -27 -47 -9 -20 20 12 13 20 24 17 24 -2 0 -14 -10 -26 -23z"/>
<path d="M560 200 c0 -103 1 -110 20 -110 19 0 20 7 20 110 0 103 -1 110 -20
110 -19 0 -20 -7 -20 -110z"/>
<path d="M633 294 c-8 -22 18 -37 36 -20 7 8 10 19 7 25 -10 16 -36 13 -43 -5z"/>
<path d="M710 202 l0 -108 55 -2 c46 -1 57 2 70 21 15 22 20 73 9 101 -10 26
-39 37 -68 26 -25 -9 -26 -8 -26 30 0 33 -3 40 -20 40 -19 0 -20 -7 -20 -108z
m89 4 c7 -8 11 -30 9 -48 -2 -28 -7 -33 -28 -33 -21 0 -26 5 -28 33 -3 31 11
62 28 62 4 0 13 -6 19 -14z"/>
<path d="M170 253 l-45 -48 46 43 c45 42 45 42 64 22 15 -17 16 -22 4 -37 -12
-17 -12 -17 6 0 19 17 19 18 -6 42 l-25 25 -44 -47z"/>
<path d="M384 248 l-29 -33 33 29 c17 17 32 31 32 33 0 8 -8 1 -36 -29z"/>
<path d="M430 243 c-53 -19 -69 -94 -29 -134 29 -29 85 -23 112 13 44 59 -15
146 -83 121z m44 -39 c30 -30 8 -90 -30 -83 -34 7 -28 99 7 99 4 0 15 -7 23
-16z"/>
<path d="M942 241 c-7 -4 -24 -6 -38 -3 -24 4 -24 3 -24 -72 0 -69 2 -76 19
-76 17 0 20 8 23 52 2 44 7 55 26 63 12 5 22 18 22 27 0 20 -8 22 -28 9z"/>
<path d="M1023 240 c-13 -5 -23 -13 -23 -18 0 -17 13 -21 32 -11 14 7 23 7 34
-2 22 -18 17 -26 -21 -33 -42 -8 -68 -41 -54 -68 11 -20 58 -25 76 -7 8 8 13
8 17 0 4 -6 14 -11 23 -11 26 0 11 119 -17 142 -25 20 -34 21 -67 8z m57 -100
c0 -15 -35 -29 -49 -20 -8 4 -10 13 -7 19 9 14 56 15 56 1z"/>
<path d="M189 223 c-13 -16 -12 -17 4 -4 9 7 17 15 17 17 0 8 -8 3 -21 -13z"/>
<path d="M630 165 c0 -68 2 -75 20 -75 18 0 20 7 20 75 0 68 -2 75 -20 75 -18
0 -20 -7 -20 -75z"/>
<path d="M145 180 c10 -11 20 -20 23 -20 3 0 -3 9 -13 20 -10 11 -20 20 -23
20 -3 0 3 -9 13 -20z"/>
<path d="M284 148 l-29 -33 33 29 c17 17 32 31 32 33 0 8 -8 1 -36 -29z"/>
</g>
</svg>
